Coordinates
version=1
nRows=19
nColumns=36
inDegrees=yes

Units are S.I. units (second, meters, Newtons, ...)
If the header above contains a line with 'inDegrees', this indicates whether rotational values are in degrees (yes) or radians (no).

endheader
time	pelvis_tilt	pelvis_list	pelvis_rotation	pelvis_tx	pelvis_ty	pelvis_tz	hip_flexion_r	hip_adduction_r	hip_rotation_r	knee_angle_r	knee_angle_r_beta	ankle_angle_r	subtalar_angle_r	mtp_angle_r	hip_flexion_l	hip_adduction_l	hip_rotation_l	knee_angle_l	knee_angle_l_beta	ankle_angle_l	subtalar_angle_l	mtp_angle_l	lumbar_extension	lumbar_bending	lumbar_rotation	arm_flex_r	arm_add_r	arm_rot_r	elbow_flex_r	pro_sup_r	arm_flex_l	arm_add_l	arm_rot_l	elbow_flex_l	pro_sup_l
      0.98333330	    -10.45161668	      0.31773770	      5.67639872	      0.12425528	      1.09335455	      0.06350581	     21.15593217	      1.56983285	      4.71246848	     52.82889436	      0.92203815	     38.50047280	    -15.70544483	     -7.49999986	     27.05689936	     -5.63173749	     -2.53119426	     58.92997523	      1.02852210	     36.50513649	      0.79828263	     -7.49999986	     -6.72309464	     -0.42224171	     -5.10469403	      7.83917237	    -13.16843485	     18.29011850	     88.17989364	     73.41856736	      4.46928001	    -13.98536204	      5.90130684	    101.30043293	     80.70571391
      1.00000000	    -10.69133659	      0.65602452	      5.45615030	      0.14469951	      1.10031721	      0.06426975	     18.34448033	      0.92658271	      4.32841948	     49.37167199	      0.86169823	     36.66320021	    -14.79692727	     -7.49999986	     24.06177649	     -5.26335862	     -3.18497603	     55.36494269	      0.96630054	     35.67469774	      1.98902785	     -7.49999986	     -5.00882613	     -0.77535424	     -4.96677182	      9.38661452	    -14.41215962	     16.71185046	     96.47046531	     74.13017787	      5.28552545	    -13.19156544	      4.04567168	    109.69806429	     81.26248505
      1.01666670	    -10.94810562	      0.95516353	      5.27951025	      0.16341575	      1.11975553	      0.06435418	     14.95946035	      0.33420818	      3.82887780	     44.33067103	      0.77371617	     34.12652417	    -13.71864242	     -7.49999986	     20.38098243	     -4.87423193	     -3.93203676	     49.91953535	      0.87126025	     34.32843899	      3.53171018	     -7.49999986	     -3.06182247	     -1.09877795	     -4.86174802	     10.57028165	    -15.74265671	     15.39634997	    102.22209825	     80.26548052	      5.82322994	    -13.09779167	      2.66661975	    115.65019470	     84.87563360
      1.03333330	    -11.09102154	      1.38844593	      5.12948644	      0.18300300	      1.13796059	      0.06494822	     10.90314986	     -0.45010501	      2.87483800	     38.25662015	      0.66770398	     30.18457364	    -11.74784947	     -7.49999986	     16.60796650	     -4.39116476	     -4.73161369	     43.93749277	      0.76685391	     30.64422033	      4.49840972	     -7.49999986	     -0.81406298	     -1.78591663	     -4.70721679	     11.19022032	    -17.19697876	     14.97921431	    106.12509410	     81.77796175	      6.37529226	    -14.73897115	      2.16665172	    120.38882380	     86.02652584
      1.05000000	    -11.33179080	      1.62560451	      4.82854984	      0.20265208	      1.15685890	      0.06582787	      7.61143379	     -1.08170674	      1.43212579	     32.89743806	      0.57416861	     24.92145750	     -9.91441135	     -7.49999987	     13.06080406	     -4.26486105	     -5.94389852	     38.49458225	      0.67185720	     25.23358757	      4.85934517	     -7.49999987	      1.35299205	     -2.20804018	     -4.47285290	     11.62904975	    -18.92231902	     14.80029801	    108.63950990	     82.93295058	      6.81477036	    -16.42252778	      2.33902164	    124.54624390	     86.34342974
      1.06666670	    -11.51033473	      2.03243416	      4.65597170	      0.22324643	      1.18052418	      0.06436628	      4.40582150	     -1.91760917	     -0.16691133	     27.47618963	      0.47954997	     18.66273078	     -7.49846090	     -7.49999987	     10.32479883	     -3.74047059	     -7.11971141	     33.40684361	      0.58305941	     17.75369089	      4.34837566	     -7.49999987	      3.20499908	     -2.44613091	     -5.40738790	     12.20813225	    -19.79890400	     15.31166615	    110.70002247	     87.80029453	      4.75818418	    -17.84238614	      0.39232427	    128.64249046	     85.12043712
      1.08333330	    -11.87239497	      2.56657803	      4.64708910	      0.24261823	      1.19565560	      0.06416623	      1.90191114	     -2.80340195	     -1.98333884	     23.35676711	      0.40765249	     10.31844855	     -4.98734313	     -7.49999987	      8.18944647	     -3.03623630	     -8.60714406	     29.04766525	      0.50697740	      9.20366252	      4.22239398	     -7.49999987	      5.03092339	     -3.03199205	     -5.51056737	     10.13883474	    -20.65263319	     13.59678313	    114.12911991	     87.73899798	      3.70413273	    -19.44609343	     -0.13736634	    131.95572650	     84.78194235
      1.10000000	    -12.12808424	      2.84310277	      5.02938274	      0.26295275	      1.20658353	      0.06476195	      0.60924078	     -3.36966597	     -4.25697609	     21.36454335	      0.37288162	      1.81403566	     -4.01878581	     -7.49999987	      6.23276661	     -2.68999233	    -10.23850511	     25.20757078	      0.43995511	     -0.10099457	      3.79681293	     -7.49999987	      6.66222530	     -3.42899619	     -5.86208930	      8.59318086	    -22.38136899	     12.73240262	    118.09843309	     86.75095142	      2.09990627	    -21.56023576	     -0.84020902	    135.09178768	     83.32869924
      1.11666670	    -12.02949694	      2.50936423	      5.25136304	      0.27924744	      1.22834715	      0.06494963	      0.46019006	     -3.07907535	     -5.11749746	     21.28028578	      0.37141105	     -7.75599153	     -4.92060813	     -7.49999987	      4.88156350	     -2.86242308	    -10.69996282	     22.48056583	      0.39235989	     -8.71214814	      3.42358096	     -7.49999987	      7.24434058	     -3.03615380	     -7.13519446	      8.51628836	    -24.67919733	     13.30565290	    121.85553444	     88.56081878	     -0.93572339	    -23.58967997	     -2.52121127	    138.45249929	     84.38149033
      1.13333330	    -11.33802334	      1.66628159	      5.30473591	      0.29420566	      1.24929004	      0.06527639	      1.22830905	     -1.77168733	     -4.60032135	     23.46826345	      0.40959847	    -15.28062063	     -6.43757238	     -7.49999987	      3.95613942	     -3.71703805	    -10.57846348	     21.98547401	      0.38371891	    -19.77916392	      1.50079728	     -7.49999987	      6.73198474	     -2.08093711	     -8.29306178	      6.52436172	    -27.29904735	     12.17738274	    126.15570683	     89.10153079	     -4.71248010	    -25.45273472	     -4.58892597	    141.80371102	     84.94500690
      1.15000000	    -10.14276634	      1.44644357	      5.61877369	      0.31569317	      1.26102804	      0.06394966	      2.22465775	     -0.90004441	     -4.17633729	     26.44274952	      0.46151304	    -13.23049505	    -10.08545870	     -7.49999987	      3.63989159	     -3.88383217	     -9.95529322	     23.77675335	      0.41498263	    -31.21781024	     -1.71901813	     -7.49999987	      5.93117601	     -1.76879350	    -14.14870248	     12.66315761	    -30.09576191	     19.78793327	    125.93954372	     86.31034392	    -15.51003064	    -26.71475608	    -14.05579304	    147.35102184	     84.80431938
      1.16666670	     -8.50662252	      1.19318854	      6.23271953	      0.33713169	      1.27690661	      0.06257559	      3.08899104	      0.23613033	     -3.92912151	     30.71756126	      0.53612258	    -12.70320420	    -12.75596447	     -7.49999987	      3.74734111	     -3.78300204	     -9.09098194	     27.10599010	      0.47308877	    -38.69409088	     -4.68236853	     -7.49999987	      4.60193699	     -1.79165213	    -14.75513096	     11.01248145	    -34.38307115	     18.28678233	    128.08447897	     85.60765792	    -19.08217081	    -29.31404775	    -15.21298328	    148.53541975	     84.44191390
      1.18333330	     -7.14213139	      1.46537694	      7.05841929	      0.35054831	      1.28675053	      0.06064007	      4.32746436	      0.60135190	     -4.20987154	     35.02367301	      0.61127841	    -11.55598697	    -15.31320588	     -7.49999987	      5.48268162	     -2.74133309	     -7.13174236	     31.77565925	      0.55458988	    -40.21138913	     -5.98167588	     -7.49999987	      3.42984185	     -2.41665527	    -15.08748806	      7.92273005	    -38.98900079	     14.66237735	    129.64412950	     83.38153785	    -22.31105888	    -32.11220717	    -18.73825652	    149.09607381	     83.26034786
      1.20000000	     -5.29645075	      1.22298876	      7.79951493	      0.36285300	      1.29167516	      0.05975677	      6.07388688	      1.45139485	     -4.29601326	     39.95873877	      0.69741156	    -14.20016853	    -16.87157636	     -7.49999987	      6.87449986	     -2.53379337	     -6.50887213	     36.18171334	      0.63149003	    -38.54625878	     -7.24800751	     -7.49999987	      0.30113272	     -2.02073064	      2.37226412	    -28.32192702	    -37.91358733	    -24.10193286	    142.09053488	     83.99431903	      4.90422332	    -39.61005959	      7.97028320	    144.14252077	     80.81274943
      1.21666670	     -3.65024659	      1.11668643	      8.71143175	      0.38003865	      1.29595373	      0.05927669	      8.30536579	      2.01517739	     -4.48631310	     44.52197538	      0.77705506	    -17.55251384	    -18.44614986	     -7.49999987	      8.31892001	     -2.20276656	     -5.52269637	     39.31119540	      0.68610979	    -35.74903467	     -7.99795152	     -7.49999987	     -1.26349850	     -1.74157010	      1.42521302	    -31.40260956	    -41.36689639	    -28.89981274	    141.95556993	     82.88470536	      4.27885400	    -43.55739464	      7.18155850	    144.62540117	     80.28947415
      1.23333330	     -2.40283547	      0.93332546	      9.87892054	      0.39816684	      1.29570112	      0.05813823	     10.21612097	      2.25542848	     -4.39997120	     45.54721170	      0.79494881	    -20.31631274	    -20.94827146	     -7.49999987	      9.56235152	     -2.22946635	     -4.84452810	     41.42309944	      0.72296947	    -33.41946045	     -9.01402529	     -7.49999987	     -2.41388638	     -1.34625700	      0.44601610	    -35.86592658	    -43.94119646	    -34.38194376	    142.80824553	     81.78155558	      4.78277619	    -46.91940371	      7.28190417	    144.90028361	     80.01490168
      1.25000000	     -1.06360183	      1.20087562	     10.10149258	      0.41127028	      1.29131474	      0.05869972	     10.38965114	      2.17282433	     -3.70319887	     44.78594487	      0.78166220	    -22.95839492	    -21.19369936	     -7.49999987	     10.08078565	     -1.88264541	     -4.20807730	     42.76440261	      0.74637963	    -33.74066046	     -9.49165073	     -7.49999987	     -2.80181159	     -1.29471737	     11.00525020	    -55.16297468	    -34.75181283	    -55.50366359	    146.94202113	     76.60259708	     30.60960269	    -44.54056837	     32.40237598	    135.52991759	     75.69236550
      1.26666670	     -0.82262883	      0.86231859	      9.75637667	      0.42654618	      1.27986631	      0.05595700	     11.23143900	      2.62075588	     -3.11759755	     44.29959997	      0.77317388	    -21.63308121	    -21.02771123	     -7.49999987	     11.55250289	     -1.75396272	     -3.46371378	     44.42404564	      0.77534586	    -28.55789754	     -7.42386990	     -7.49999987	     -3.14283846	     -0.63285777	     12.09696142	    -59.63936616	    -35.86936738	    -62.25035335	    147.51702923	     75.67221410	     34.72596536	    -45.94556802	     37.26139777	    134.56597536	     75.15011503
      1.28333330	     -0.81800849	      0.77486501	      9.50713951	      0.44025205	      1.27550883	      0.05558760	     12.37070085	      2.75386889	     -2.16829952	     43.39844012	      0.75744567	    -24.59590334	    -19.56184544	     -7.49999987	     13.25161598	     -1.28470344	     -2.79489431	     44.09496733	      0.76960236	    -22.33622341	     -5.31735758	     -7.49999987	     -3.84984440	     -0.30667368	     11.65061690	    -61.64294473	    -37.99605990	    -65.25747001	    147.99943651	     75.30926372	     34.26000071	    -48.74107400	     39.11142402	    135.24543454	     75.02151710
